<svg width="21" height="20" viewBox="0 0 21 20" fill="none" xmlns="http://www.w3.org/2000/svg">
<path d="M17.704 17.0438H14.7459V12.4021C14.7459 11.2953 14.7228 9.87282 13.199 9.87282C11.6565 9.87282 11.4215 11.0734 11.4215 12.3202V17.0432H8.45963V7.49914H11.3046V8.80098H11.3428C11.7403 8.04912 12.7071 7.25852 14.1496 7.25852C17.1503 7.25852 17.7071 9.23409 17.7071 11.8028V17.0432L17.704 17.0438ZM5.11338 6.19481C4.8873 6.19489 4.66343 6.15037 4.45458 6.0638C4.24574 5.97723 4.05602 5.85031 3.89631 5.69031C3.73659 5.53031 3.61001 5.34037 3.52382 5.13137C3.43762 4.92238 3.39351 4.69843 3.394 4.47236C3.39437 4.13209 3.49563 3.79957 3.68498 3.51684C3.87433 3.23412 4.14325 3.01388 4.45776 2.88398C4.77227 2.75408 5.11824 2.72034 5.45191 2.78705C5.78559 2.85375 6.092 3.01789 6.3324 3.25871C6.57279 3.49954 6.73638 3.80624 6.80248 4.14002C6.86858 4.47381 6.83422 4.81971 6.70374 5.13397C6.57326 5.44823 6.35253 5.71675 6.06945 5.90558C5.78637 6.0944 5.45366 6.19505 5.11338 6.19481ZM6.59713 17.0438H3.629V7.49977H6.59713V17.0438ZM19.189 0H2.1415C1.32713 0 0.666504 0.644355 0.666504 1.44183V18.5582C0.666504 19.3556 1.32713 20 2.1415 20H19.1859C19.999 20 20.6665 19.3556 20.6665 18.5582V1.44183C20.6665 0.644355 19.999 0 19.1859 0H19.189Z" fill="#747AE7"/>
</svg>
