<svg width="16" height="16" viewBox="0 0 16 16" fill="none" xmlns="http://www.w3.org/2000/svg">
<path d="M14.5725 8.38224C14.8678 7.99201 15.0312 7.51388 15.0312 7.01642C15.0312 6.22716 14.59 5.48009 13.8799 5.06349C13.6971 4.95625 13.4889 4.89982 13.277 4.90001H9.06172L9.16719 2.73966C9.1918 2.21759 9.00723 1.72189 8.64863 1.34396C8.47265 1.15768 8.26034 1.00947 8.02481 0.908487C7.78929 0.807505 7.53556 0.755895 7.2793 0.756849C6.36523 0.756849 5.55664 1.37208 5.31406 2.25275L3.8041 7.71954H1.53125C1.22012 7.71954 0.96875 7.97091 0.96875 8.28204V14.6805C0.96875 14.9916 1.22012 15.243 1.53125 15.243H12.101C12.2627 15.243 12.4209 15.2113 12.5668 15.1481C13.4035 14.7912 13.9432 13.9738 13.9432 13.0668C13.9432 12.8453 13.9115 12.6274 13.8482 12.4164C14.1436 12.0262 14.307 11.5481 14.307 11.0506C14.307 10.8291 14.2754 10.6111 14.2121 10.4002C14.5074 10.01 14.6709 9.53185 14.6709 9.03439C14.6674 8.8129 14.6357 8.59318 14.5725 8.38224ZM2.23438 13.9774V8.98517H3.6582V13.9774H2.23438ZM13.4211 7.77228L13.0361 8.10626L13.2805 8.55275C13.361 8.69983 13.4027 8.86497 13.4018 9.03263C13.4018 9.32267 13.2752 9.59865 13.0572 9.78849L12.6723 10.1225L12.9166 10.569C12.9971 10.716 13.0388 10.8812 13.0379 11.0488C13.0379 11.3389 12.9113 11.6149 12.6934 11.8047L12.3084 12.1387L12.5527 12.5852C12.6332 12.7322 12.675 12.8974 12.674 13.0651C12.674 13.4588 12.442 13.8139 12.0834 13.9756H4.7832V8.92892L6.53223 2.59201C6.57733 2.42958 6.67414 2.28629 6.808 2.18383C6.94185 2.08138 7.10546 2.02535 7.27402 2.02423C7.40762 2.02423 7.53945 2.0629 7.64492 2.14201C7.81894 2.27208 7.91211 2.46896 7.90156 2.67814L7.73281 6.16564H13.2594C13.5723 6.35724 13.7656 6.68068 13.7656 7.01642C13.7656 7.30646 13.6391 7.58068 13.4211 7.77228Z" fill="#389E0D"/>
</svg>
